<?xml version="1.0" encoding="UTF-8"?>
<svg width="656px" height="402px" viewBox="0 0 656 402" version="1.1" xmlns="http://www.w3.org/2000/svg" xmlns:xlink="http://www.w3.org/1999/xlink">
    <title>donate</title>
    <g id="Page-1" stroke="none" stroke-width="1" fill="none" fill-rule="evenodd">
        <g id="donate" fill-rule="nonzero">
            <path d="M90.663184,390.100082 L93.786637,400.432774 L124.784713,400.432774 C124.784713,400.432774 116.8551,386.495463 90.663184,390.100082 Z" id="Path" fill="#221E50"></path>
            <path d="M22.926038,390.100082 L26.049491,400.432774 L57.044817,400.432774 C57.044817,400.432774 49.115205,386.495463 22.926038,390.100082 Z" id="Path" fill="#221E50"></path>
            <path d="M117.732197,392.272202 L93.690404,391.961507 L87.952158,391.890019 C87.952158,391.890019 76.129227,341.007424 71.642013,284.532307 C71.045367,277.009623 70.017047,272.120979 69.494638,266.891394 C64.979929,318.68408 58.991476,377.795986 50.588947,392.269453 L21.576024,391.88727 C21.576024,391.88727 20.335991,355.750344 22.74182,286.690679 C23.629915,239.363211 25.180643,192.464669 27.861424,185.472642 L27.861424,185.472642 C27.88342,185.073962 27.910916,184.672532 27.935661,184.265604 C29.117954,166.143525 104.419027,186.671432 104.419027,186.671432 L105.216387,198.992026 L105.274127,199.880121 L117.732197,392.272202 Z" id="Path" fill="#2B295E"></path>
            <path d="M78.018147,186.256255 L78.018147,223.306021 C78.018147,223.306021 74.608743,224.205114 74.16882,226.68518 C73.728897,229.165246 72.497113,328.345889 50.586197,392.269453 L21.576024,392.269453 C21.576024,392.269453 22.530107,198.090184 27.866923,185.472642 L78.018147,186.256255 Z" id="Path" fill="#333383"></path>
            <path d="M31.620016,202.010998 C46.192466,202.010998 52.51636,191.444597 52.5741,191.337366 L51.903217,190.944185 C51.839978,191.051416 45.579324,201.48584 31.105856,201.227385 L31.092109,202.005499 L31.620016,202.010998 Z" id="Path" fill="#221E50"></path>
            <path d="M104.977179,201.034919 C97.569975,197.980203 94.223811,192.384933 94.177069,192.310696 L94.847952,191.914765 C94.891944,191.989002 98.018147,197.188342 104.919439,200.163321 L104.977179,201.034919 Z" id="Path" fill="#221E50"></path>
            <path d="M26.959582,365.502887 C29.291174,350.105582 31.221336,331.865274 32.282651,312.819357 C32.444872,309.907616 32.593346,306.910641 32.725323,303.913665 C32.871048,300.614243 33.000275,297.25983 33.104757,293.963156 C33.1405,292.830355 32.829805,291.518834 32.527358,290.254056 C32.252406,289.077261 31.958207,287.859225 31.977454,286.880396 C32.28815,274.34534 32.032444,262.863349 31.804234,252.734122 C31.746494,250.075337 31.688754,247.477042 31.642013,244.925488 C31.215837,221.892769 31.056365,208.840803 31.061864,208.711575 L31.061864,208.711575 C31.061864,208.840803 30.484465,221.82678 30.907891,244.892494 C30.953716,247.444047 31.008707,250.046925 31.072862,252.701127 C31.298323,262.822106 31.554028,274.293099 31.243332,286.808908 C31.215837,287.908716 31.518284,289.176244 31.812483,290.410778 C32.106681,291.645312 32.39813,292.868848 32.362387,293.88342 C32.257905,297.182843 32.131427,300.523508 31.985703,303.825681 C31.853726,306.817157 31.710751,309.811383 31.54303,312.720374 C30.481716,331.738796 29.068463,350.157822 26.74237,365.511136 L26.959582,365.502887 Z" id="Path" fill="#2B295E"></path>
            <path d="M3.682156,198.345889 L3.957108,206.869398 C3.957108,206.869398 -4.137476,216.096783 3.899368,226.896893 C3.899368,226.896893 7.514985,231.076162 9.225186,227.334067 C10.935386,223.591971 9.794336,224.749519 12.307396,219.530932 C14.820456,214.312345 12.772065,207.576024 11.457795,205.266428 L11.823481,198.417377 L3.682156,198.345889 Z" id="Path" fill="#D09F8E"></path>
            <path d="M86.387682,66.7649161 C82.953533,58.4036294 83.891119,53.0530657 83.891119,53.0530657 L64.812208,39.9406104 C63.162497,56.1380258 60.294748,60.4850151 60.443222,66.8693979 C60.445972,67.034369 92.11218,80.710476 86.387682,66.7649161 Z" id="Path" fill="#B88F81"></path>
            <path d="M88.405829,53.7569425 C88.405829,53.7569425 65.186142,54.8182568 64.759967,40.3475392 C64.333792,25.8768216 61.023371,16.2672532 75.824031,14.9777289 C90.624691,13.6882046 93.695903,19.1212538 95.001925,23.9164146 C96.307946,28.7115755 94.435524,53.1108056 88.405829,53.7569425 Z" id="Path" fill="#D09F8E"></path>
            <path d="M64.779214,41.3456145 C64.779214,41.3456145 66.549904,21.6425626 87.65796,22.3491889 C108.766016,23.0558152 99.634864,3.1025571 81.499038,0.1495738 C81.499038,0.1495738 83.390707,7.182843 71.980203,8.2963981 C48.034644,10.6279901 62.651086,38.2194116 64.779214,41.3456145 Z" id="Path" fill="#555CA5"></path>
            <path d="M176.181468,182.533407 L177.385757,184.757767 C177.385757,184.757767 189.101457,181.098158 195.7168,192.822106 C195.7168,192.822106 198.073137,197.820731 193.959857,197.867473 C189.846577,197.914215 191.367061,197.342315 185.576574,197.526533 C179.786087,197.710751 174.204564,195.384658 172.194666,191.752543 L169.995051,187.697003 L176.181468,182.533407 Z" id="Path" fill="#AF7041"></path>
            <path d="M3.341215,202.274952 L12.081936,202.591147 C12.081936,202.591147 20.198515,184.961232 21.570525,178.766566 C24.144075,167.158097 25.76904,154.218862 25.76904,154.218862 L32.871048,120.124828 L33.102007,119.607919 C33.102007,119.607919 30.74292,143.707451 29.285675,152.580148 C25.122903,177.875722 25.527083,185.962057 26.17322,188.549354 C26.467418,189.7124 26.805609,189.764641 26.805609,189.764641 L85.818532,189.739896 L104.542755,189.739896 C104.542755,189.739896 107.646962,192.142975 103.858125,163.817432 C102.807809,155.986802 109.225186,131.216387 110.932637,124.812758 C111.045367,124.39758 111.133352,124.05664 111.207589,123.803684 C111.303822,123.465494 111.353313,123.284025 111.353313,123.284025 C111.353313,123.284025 114.526258,131.560077 117.248282,136.940885 C122.301897,146.929887 133.011273,161.730547 133.011273,161.730547 C133.011273,161.730547 144.74347,172.288699 154.130327,179.778389 C162.637338,186.5697 169.662359,190.207314 169.662359,190.207314 L179.975804,183.182293 C179.975804,183.182293 172.887545,171.31537 168.568051,164.977729 C164.633489,159.203739 150.943635,141.309871 150.943635,141.309871 C150.943635,141.309871 134.350289,99.937861 120.74017,79.871872 C118.078636,75.948309 103.192741,70.3475392 86.118229,65.8878196 C84.784713,69.37146 81.971955,71.634314 77.196041,71.634314 C70.294748,71.634314 61.680506,66.9078911 61.155348,60.5894968 C47.825681,61.634314 33.869123,65.6953533 28.202365,67.7025021 C9.189442,74.441573 5.106406,142.789112 5.106406,142.789112 C5.106406,142.789112 4.182568,155.549629 2.827055,159.814133 C-0.909541,171.546329 3.341215,202.274952 3.341215,202.274952 Z" id="Path" fill="#00BAE0"></path>
            <path d="M26.178719,188.549354 C31.463294,185.83008 54.196316,182.225461 54.196316,167.25983 C54.196316,155.621116 47.459995,143.927413 41.378059,109.649161 C40.905142,106.990377 37.380258,106.520209 36.503162,109.074512 C35.243882,112.750619 33.910366,116.731922 32.876547,120.124828 L33.107506,119.607919 C33.107506,119.607919 30.748419,143.707451 29.291174,152.580148 C25.128403,177.864724 25.532582,185.962057 26.178719,188.549354 Z" id="Path" fill="#07B2D5"></path>
            <path d="M111.353313,123.278526 C111.353313,123.278526 114.526258,131.554578 117.248282,136.935386 C122.301897,146.924388 133.011273,161.725048 133.011273,161.725048 C133.011273,161.725048 144.74347,172.2832 154.130327,179.77289 C162.637338,186.564201 169.662359,190.201815 169.662359,190.201815 C171.31207,182.34094 137.946659,159.31647 133.852626,155.706351 C129.758592,152.096233 118.933737,114.317844 113.398955,112.387682 C109.505637,111.034919 111.353313,123.278526 111.353313,123.278526 Z" id="Path" fill="#07B2D5"></path>
            <g id="box_donate_2" transform="translate(87.693704, 65.208688)">
                <path d="M458.036844,110.591147 L430.816607,118.894693 L424.613693,110.585648 L424.553203,110.802859 L419.263129,130.200715 L400.621391,198.562002 L303.929062,158.507011 L349.950509,78.8122079 L337.418202,77.6711575 L336.026945,45.188342 C336.026945,45.188342 355.672257,38.2925488 387.877371,47.88562 C387.579633,55.815351 392.193586,63.1103599 399.485876,66.2395436 C406.778166,69.3687274 415.244325,67.6865063 420.786362,62.0071487 C425.31482,64.5339566 430.134726,67.154248 434.778664,70.5691504 C453.164696,84.0995326 458.036844,110.591147 458.036844,110.591147 Z" id="Path" fill="#555CA5"></path>
                <path d="M424.553203,110.805609 L419.263129,130.203464 L392.422326,128.757217 C392.422326,128.757217 415.345065,107.618917 420.016497,106.05994 C422.634039,105.180093 423.926313,108.080836 424.553203,110.805609 Z" id="Path" fill="#4F54A0"></path>
                <path d="M135.386307,111.65796 C127.709651,112.05664 122.463569,100.145724 119.227385,99.9890019 C118.277051,100.024933 117.330571,100.129689 116.395381,100.302447 C119.755686,105.887933 122.11274,112.018319 123.359912,118.416277 C127.962607,141.399505 118.262304,162.722024 101.696453,166.035194 C85.5842728,169.260379 68.908441,154.248007 63.788837,132.28485 C63.645862,131.670791 63.5111356,131.050316 63.3846577,130.423426 C62.0881147,124.077934 61.9020557,117.555634 62.8347539,111.146549 C62.8334286,111.129161 62.8334286,111.111697 62.8347539,111.094308 C62.3057871,111.217623 61.7872919,111.382181 61.2840253,111.586472 C58.3585373,112.980478 58.102832,125.991202 50.8605994,128.578499 C43.6183668,131.165796 38.7407204,117.286225 47.3632114,106.477866 C52.6202914,99.8790212 61.9356613,96.7033269 68.4052791,95.2240858 C69.6972766,93.0906399 71.2427462,91.1214125 73.0079736,89.3593621 L73.2004399,89.1668958 C66.4714903,85.5256137 62.6098417,78.1792481 63.4259005,70.5718999 L63.3791586,70.5718999 C59.4043386,69.367801 56.6616339,65.7351213 56.5920885,61.5825062 C56.5225431,57.4298911 59.1420682,53.7074081 63.0743396,52.3708862 C67.0066109,51.0343644 71.3519731,52.3895835 73.8273302,55.7244982 C76.6170594,54.3549335 79.701285,53.6938932 82.8072587,53.799835 C83.8466974,49.8616801 87.2671423,47.0145362 91.3285225,46.7068209 C95.3899026,46.3991057 99.2002734,48.6983984 100.821198,52.4349878 C102.442123,56.1715772 101.51762,60.524848 98.5180093,63.280176 C102.193393,69.7360835 101.736978,77.7480937 97.3522134,83.7448447 C100.144919,84.7293388 102.777765,86.1189478 105.166346,87.8691229 C111.65521,86.6263404 122.262854,85.6200165 130.120979,89.9395106 C142.22986,96.5686005 143.065714,111.253781 135.386307,111.65796 Z" id="Path" fill="#079AB8"></path>
                <path d="M63.788837,132.28485 C63.645862,131.670791 63.5111356,131.050316 63.3846577,130.423426 C62.0881147,124.077934 61.9020557,117.555634 62.8347539,111.146549 C63.7860874,110.046742 65.0508661,109.221886 66.4861149,109.895518 C69.6590597,111.396756 69.1586472,126.585098 73.9978004,130.090734 C77.5666758,132.68628 68.5949959,132.716525 63.788837,132.28485 Z" id="Path" fill="#0892AE"></path>
                <path d="M82.1858675,86.9452846 C79.205196,88.0237136 76.1335052,88.8316658 73.0079736,89.3593621 L73.2004399,89.1668958 C66.4714903,85.5256137 62.6098417,78.1792481 63.4259005,70.5718999 L63.3791586,70.5718999 C63.571625,70.4949134 63.8135826,70.6103932 64.1325268,71.0585648 C65.3395656,72.771515 71.8669233,86.6235909 82.1858675,85.0371185 C82.1858675,85.0261204 84.8831454,85.9444597 82.1858675,86.9452846 Z" id="Path" fill="#0892AE"></path>
                <path d="M87.080011,54.9903767 C87.080011,54.9903767 89.4995876,50.4839153 93.0877097,51.6524608 C96.6758317,52.8210063 97.1762442,57.9956008 94.8419027,59.4143525 C94.8419027,59.4088535 91.3637613,56.1891669 87.080011,54.9903767 Z" id="Path" fill="#0892AE"></path>
                <path d="M70.222711,57.6189167 C70.222711,57.6189167 65.0508661,55.2350839 62.7137751,57.9901017 C60.3766841,60.7451196 65.0508661,64.2562552 65.0508661,64.2562552 C65.0508661,64.2562552 67.302722,59.5848227 70.222711,57.6189167 Z" id="Path" fill="#0892AE"></path>
                <path d="M263.692604,122.139126 L191.306021,144.830905 L184.195766,104.099533 L179.870773,79.3016222 L179.835029,79.1174045 L172.334341,84.3112455 L156.447622,66.8985428 C156.447622,66.8985428 164.165521,53.9263129 186.532857,44.2864999 C190.054846,48.834498 196.012968,50.7454346 201.523187,49.0943186 C207.033405,47.4432026 210.95889,42.5706812 211.399505,36.8353038 C215.094858,36.1341765 218.993676,35.3478141 223.161947,35.0893594 C239.675557,34.0582898 254.701677,46.5273577 254.701677,46.5273577 L243.42865,63.799835 L236.117679,62.0648886 L263.692604,122.139126 Z" id="Path" fill="#00BAE0"></path>
                <path d="M194.146274,102.216112 L184.195766,104.099533 L179.870773,79.3016222 C180.604894,78.0615892 181.638713,77.2449821 183.043717,77.9268628 C186.634589,79.6865549 194.146274,102.216112 194.146274,102.216112 Z" id="Path" fill="#07B2D5"></path>
                <polygon id="Rectangle" fill="#0DB1D3" transform="translate(262.226008, 123.966387) rotate(129.732303) translate(-262.226008, -123.966387) " points="214.78023 90.4271535 309.671787 90.4271535 309.671787 157.505621 214.78023 157.505621"></polygon>
                <polygon id="Rectangle" fill="#079AB8" transform="translate(258.534412, 120.672769) rotate(129.590000) translate(-258.534412, -120.672769) " points="211.14783 87.1753815 305.920995 87.1753815 305.920995 154.170157 211.14783 154.170157"></polygon>
                <polygon id="Rectangle" fill="#333383" transform="translate(210.091554, 135.896845) rotate(62.850000) translate(-210.091554, -135.896845) " points="162.704972 102.399457 257.478137 102.399457 257.478137 169.394233 162.704972 169.394233"></polygon>
                <polygon id="Rectangle" fill="#555CA5" transform="translate(204.154729, 138.940666) rotate(62.850000) translate(-204.154729, -138.940666) " points="156.768146 105.443278 251.541311 105.443278 251.541311 172.438054 156.768146 172.438054"></polygon>
                <path d="M332.188617,10.1732197 C332.188617,10.1732197 338.622491,10.4041793 341.613968,6.91229035 L331.619467,0.065988452 C331.619467,0.065988452 329.364861,6.42012648 332.188617,10.1732197 Z" id="Path" fill="#079AB8"></path>
                <path d="M297.676657,60.5718999 C297.676657,60.5718999 300.219962,66.4861149 298.042343,70.5389057 L288.047842,63.6953533 C288.047842,63.6953533 293.159197,59.2961232 297.676657,60.5718999 Z" id="Path" fill="#079AB8"></path>
                <polygon id="Rectangle" fill="#00BAE0" transform="translate(314.877356, 35.176704) rotate(-55.600000) translate(-314.877356, -35.176704) " points="284.460804 28.2547903 345.293908 28.2547903 345.293908 42.0986176 284.460804 42.0986176"></polygon>
                <path d="M318.394281,17.8498763 L321.48749,13.3296673 C326.345889,14.0940335 332.760517,15.1498488 336.477866,15.9417102 L333.20044,20.731372 L318.394281,17.8498763 Z" id="Path" fill="#079AB8"></path>
                <path d="M310.021996,30.074237 L313.117954,25.554028 C317.976354,26.3183943 324.390982,27.37146 328.108331,28.1660709 L324.830905,32.9529832 L310.021996,30.074237 Z" id="Path" fill="#079AB8"></path>
                <path d="M302.062139,41.6992026 L305.158097,37.1789937 C310.013748,37.9433599 316.431125,38.9964256 320.148474,39.7910366 L316.871048,44.5779489 L302.062139,41.6992026 Z" id="Path" fill="#079AB8"></path>
                <path d="M293.794336,53.7750894 L296.887545,49.2548804 C301.745944,50.0164971 308.160572,51.0723123 311.877921,51.8669233 L308.600495,56.6538356 L293.794336,53.7750894 Z" id="Path" fill="#079AB8"></path>
                <path d="M119.106406,51.965906 C119.106406,51.965906 120.252956,47.3824581 118.199065,44.7016772 L111.765191,50.8358537 C111.765191,50.8358537 115.982953,53.4066538 119.106406,51.965906 Z" id="Path" fill="#555CA5"></path>
                <path d="M150.035744,84.4102282 C150.035744,84.4102282 154.668683,83.4863899 157.247732,85.6640088 L150.813858,91.7981853 C150.813858,91.7981853 148.432774,87.4346989 150.035744,84.4102282 Z" id="Path" fill="#555CA5"></path>
                <polygon id="Rectangle" fill="#F2D370" transform="translate(134.444419, 68.168642) rotate(-43.630000) translate(-134.444419, -68.168642) " points="129.364683 45.8466733 139.524155 45.8466733 139.524155 90.4906106 129.364683 90.4906106"></polygon>
                <path d="M122.518559,63.0244707 L119.744295,60.1127303 C121.033819,56.7445697 122.768765,52.2985977 123.901567,49.7497938 L126.840803,52.8320044 L122.518559,63.0244707 Z" id="Path" fill="#555CA5"></path>
                <path d="M130.019247,70.8935936 L127.244982,67.9818532 C128.534506,64.6136926 130.269453,60.1677206 131.402255,57.6189167 L134.34149,60.7011273 L130.019247,70.8935936 Z" id="Path" fill="#555CA5"></path>
                <path d="M137.154248,78.3777839 L134.379984,75.4660434 C135.666758,72.0951334 137.404454,67.6519109 138.537256,65.103107 L141.473742,68.1880671 L137.154248,78.3777839 Z" id="Path" fill="#555CA5"></path>
                <path d="M144.564201,86.1506736 L141.789937,83.2416827 C143.079461,79.8707726 144.814407,75.4275502 145.947209,72.8759967 L148.886445,75.9582073 L144.564201,86.1506736 Z" id="Path" fill="#555CA5"></path>
                <rect id="Rectangle" fill="#079AB8" transform="translate(183.046467, 231.130050) rotate(180.000000) translate(-183.046467, -231.130050) " x="56.8243057" y="127.052514" width="252.444322" height="208.155073"></rect>
                <rect id="Rectangle" fill="#00BAE0" transform="translate(309.265878, 231.130050) rotate(180.000000) translate(-309.265878, -231.130050) " x="183.043717" y="127.052514" width="252.444322" height="208.155073"></rect>
                <polygon id="Path" fill="#00BAE0" points="56.8215562 127.052516 0.065988452 181.820181 126.367886 181.820181 183.043717 127.052516"></polygon>
                <polygon id="Path" fill="#19C3E6" points="183.043717 127.052516 435.48804 127.052516 435.48804 193.227935 183.043717 335.207589"></polygon>
                <polygon id="Path" fill="#00BAE0" points="183.043717 127.052516 232.994226 181.820181 482.100632 181.820181 435.48804 127.052516"></polygon>
                <polygon id="Path" fill="#F2D370" points="56.9700302 282.419577 96.9727798 282.419577 93.4478966 271.163046 96.9727798 263.120704 56.9700302 263.120704"></polygon>
            </g>
            <g id="box_donate_1" transform="translate(160.000000, 273.897168)">
                <polygon id="Rectangle" fill="#333383" transform="translate(163.698084, 36.714025) rotate(91.720000) translate(-163.698084, -36.714025) " points="145.043974 23.5273322 182.352195 23.5273322 182.352195 49.9007168 145.043974 49.9007168"></polygon>
                <polygon id="Rectangle" fill="#555CA5" transform="translate(161.068504, 36.635032) rotate(91.720000) translate(-161.068504, -36.635032) " points="142.414394 23.4483392 179.722615 23.4483392 179.722615 49.8217238 142.414394 49.8217238"></polygon>
                <polygon id="Rectangle" fill="#05748B" transform="translate(135.298910, 39.399873) rotate(122.920000) translate(-135.298910, -39.399873) " points="116.644799 26.2131803 153.95302 26.2131803 153.95302 52.5865649 116.644799 52.5865649"></polygon>
                <polygon id="Rectangle" fill="#079AB8" transform="translate(133.095239, 37.972421) rotate(122.920000) translate(-133.095239, -37.972421) " points="114.441129 24.7857289 151.74935 24.7857289 151.74935 51.1591135 114.441129 51.1591135"></polygon>
                <path d="M100.063239,39.3346164 C95.4440473,39.5765741 92.2875997,32.411328 90.3409403,32.3150949 C89.7689474,32.3381053 89.1992951,32.4015021 88.6362387,32.5048117 C90.6576712,35.8648071 92.0757973,39.5524931 92.8265054,43.4011548 C95.5952708,57.2257355 89.7607919,70.0522409 79.7965356,72.0483915 C70.1044817,73.9730547 60.0714875,64.9628815 56.9755293,51.7459445 C56.8875447,51.3747594 56.8078086,51.0008249 56.7308221,50.6241408 C55.9508195,46.8075417 55.8373305,42.8847295 56.3953808,39.0294199 C56.3940563,39.0184617 56.3940563,39.0073838 56.3953808,38.9964256 C56.0772253,39.0702548 55.7655244,39.1695578 55.4632939,39.2933737 C53.7008524,40.1182293 53.5386307,47.9571075 49.1916415,49.5133352 C44.8446522,51.0695628 41.8999175,42.7220236 47.0882596,36.2194116 C50.2502062,32.2546054 55.8537256,30.3409403 59.7360462,29.4500962 C60.514725,28.1663433 61.4462868,26.9818103 62.5103107,25.9224636 L62.6257905,25.8069838 C58.5780206,23.6170666 56.2553898,19.1977672 56.7473192,14.6219412 L56.719824,14.6219412 C54.3277159,13.900392 52.6754884,11.7164502 52.6317602,9.21827046 C52.588032,6.72009067 54.1628152,4.47966323 56.5282056,3.67483869 C58.8935961,2.87001415 61.5080072,3.68506743 62.9969755,5.69150399 C64.6746879,4.86491343 66.5305569,4.46540574 68.39978,4.52845752 C69.0263147,2.16154578 71.083148,0.451120328 73.5246264,0.266727808 C75.9661047,0.0823352884 78.2565009,1.46443646 79.2314226,3.71039829 C80.2063444,5.95636011 79.6518671,8.57335714 77.8498763,10.2309596 C80.0566347,14.1151432 79.7822736,18.9320636 77.148749,22.5405554 C78.8272502,23.1320826 80.4102886,23.9657482 81.8476767,25.0151224 C85.7519934,24.2700027 92.1336266,23.6623591 96.8600495,26.2606544 C104.179269,30.2584548 104.679681,39.0926588 100.063239,39.3346164 Z" id="Path" fill="#333383"></path>
                <path d="M56.9865274,51.7459445 C56.8985428,51.3747594 56.8188067,51.0008249 56.7418202,50.6241408 C55.9618176,46.8075417 55.8483286,42.8847295 56.4063789,39.0294199 C56.9782788,38.3612868 57.7398955,37.8663734 58.605994,38.2760517 C60.51416,39.1778939 60.211713,48.314545 63.1234534,50.4234259 C65.2790762,51.9851526 59.8817707,52.0043992 56.9865274,51.7459445 Z" id="Path" fill="#2B295E"></path>
                <path d="M68.0588397,24.4707176 C66.2652186,25.1174997 64.4175822,25.6033324 62.5378059,25.9224636 L62.6532857,25.8069838 C58.6055158,23.6170666 56.2828849,19.1977672 56.7748144,14.6219412 L56.7473192,14.6219412 C56.8600495,14.5751993 57.0222711,14.6466868 57.1982403,14.9161397 C57.9241133,15.9444597 61.8504262,24.2645037 68.0588397,23.3241683 C68.0588397,23.3159197 69.6810558,23.868573 68.0588397,24.4707176 Z" id="Path" fill="#2B295E"></path>
                <path d="M71.0035744,5.24333242 C71.0035744,5.24333242 72.4580698,2.53505637 74.6164421,3.23618367 C76.7748144,3.93731097 77.0910091,7.05251581 75.6722574,7.91036569 C75.6722574,7.90486665 73.5798735,5.96920539 71.0035744,5.24333242 Z" id="Path" fill="#2B295E"></path>
                <path d="M60.8633489,6.82980478 C60.8633489,6.82980478 57.7508936,5.39455595 56.3458895,7.05251581 C54.9408853,8.71047567 57.7508936,10.8221061 57.7508936,10.8221061 C57.7508936,10.8221061 59.1146549,8.01209788 60.8633489,6.82980478 Z" id="Path" fill="#2B295E"></path>
                <rect id="Rectangle" fill="#D0D6EC" transform="translate(79.461094, 81.409128) rotate(180.000000) translate(-79.461094, -81.409128) " x="24.7236734" y="36.274402" width="109.474842" height="90.2694528"></rect>
                <rect id="Rectangle" fill="#DFE5F4" transform="translate(134.198515, 81.409128) rotate(180.000000) translate(-134.198515, -81.409128) " x="79.4610943" y="36.274402" width="109.474842" height="90.2694528"></rect>
                <polygon id="Path" fill="#DFE5F4" points="24.7209238 36.2716525 0.109980753 60.0247457 54.8803959 60.0247457 79.4610943 36.2716525"></polygon>
                <polygon id="Path" fill="#D0D6EC" opacity="0.6" points="79.4610943 36.2716525 189.219137 36.2716525 189.219137 64.9738796 79.4610943 126.543855"></polygon>
                <polygon id="Path" fill="#DFE5F4" points="79.4610943 36.2716525 101.121804 60.0247457 209.150399 60.0247457 188.935936 36.2716525"></polygon>
            </g>
            <g id="box_donate_3" transform="translate(452.829805, 312.665384)">
                <rect id="Rectangle" fill="#00BAE0" x="45.6612593" y="0.107231235" width="90.8660984" height="87.6986527"></rect>
                <rect id="Rectangle" fill="#079AB8" x="0.228210063" y="0.107231235" width="90.8660984" height="87.6986527"></rect>
                <polygon id="Path" fill="#F2D370" points="63.5441298 0.107231235 63.5441298 14.5064614 67.594171 13.2389332 70.4894144 14.5064614 70.4894144 0.107231235"></polygon>
                <polygon id="Path" fill="#F2D370" points="18.2843002 87.8086335 18.2843002 73.4094034 14.234259 74.6769315 11.3390157 73.4094034 11.3390157 87.8086335"></polygon>
            </g>
            <g id="women" transform="translate(524.000000, 31.389607)">
                <polygon id="Path" fill="#E7B2B6" points="86.9150399 335.31207 80.2777014 362.790762 71.234534 359.304372 70.2996976 336.029695"></polygon>
                <path d="M82.6835304,359.037668 L79.6590597,369.045917 L49.6315645,369.045917 C49.6315645,369.045917 57.3137201,355.545779 82.6835304,359.037668 Z" id="Path" fill="#D35C2B"></path>
                <polygon id="Path" fill="#E7B2B6" points="127.184493 333.37091 128.85895 362.790762 118.237558 360.558152 107.613418 336.05719"></polygon>
                <path d="M131.267528,359.037668 L128.243057,369.045917 L98.2183118,369.045917 C98.2183118,369.045917 105.894968,355.545779 131.267528,359.037668 Z" id="Path" fill="#D35C2B"></path>
                <path d="M111.080561,351.113555 L131.264779,347.629915 C131.264779,347.629915 126.917789,313.764091 107.618917,263.868573 C103.447897,253.08771 109.694803,181.003574 103.508386,161.468243 L51.7871872,161.468243 L84.3359912,288.496013 L111.080561,351.113555 Z" id="Path" fill="#333383"></path>
                <path d="M108.094583,188.281551 C107.94061,216.068188 89.7195491,349.774539 89.7195491,349.774539 L78.5510036,349.296123 L68.9551828,348.886445 C68.9551828,348.886445 58.1798185,290.17322 56.502612,269.565576 C54.3634864,243.31592 51.7871872,161.473742 51.7871872,161.473742 L103.502887,161.473742 C103.502887,161.473742 108.218312,166.101182 108.094583,188.281551 Z" id="Path" fill="#555CA5"></path>
                <path d="M108.094583,188.281551 C107.94061,216.068188 89.7195491,349.774539 89.7195491,349.774539 L78.5510036,349.296123 C85.6007699,323.909816 92.7440198,198.641738 93.1894418,185.683255 C93.4643937,177.272477 90.3409403,167.588672 87.9296123,161.473742 L103.502887,161.473742 C103.502887,161.473742 108.218312,166.101182 108.094583,188.281551 Z" id="Path" fill="#4F54A0"></path>
                <path d="M76.6730822,344.954633 C79.9395106,327.387957 82.8072587,306.549354 84.6466868,284.817157 C84.9216387,281.495738 85.1965906,278.075337 85.4495463,274.643937 C85.7244982,270.871597 85.9774539,267.052516 86.2029145,263.291174 C86.279901,261.9989 85.9472092,260.508661 85.622766,259.067913 C85.3230685,257.726148 85.0123728,256.34039 85.0728622,255.218587 C85.8262304,240.921089 85.8647237,227.825131 85.8977179,216.277151 C85.8977179,213.247182 85.910549,210.279534 85.9362112,207.37421 C86.1231784,181.110806 86.3266428,166.22766 86.3348914,166.081936 L86.3348914,166.081936 C86.3348914,166.22766 85.2350839,181.044817 85.0563651,207.343965 C85.034369,210.252956 85.0215379,213.22152 85.0178719,216.249656 C84.9821281,227.797635 84.9436349,240.866098 84.1930162,255.14435 C84.1270278,256.389882 84.451471,257.841628 84.7676657,259.243882 C85.0838603,260.646137 85.394556,262.042892 85.3175694,263.20044 C85.0893594,266.959032 84.8364036,270.772615 84.5614517,274.542205 C84.3139951,277.957108 84.0445422,281.37201 83.7613418,284.690679 C81.9136651,306.392631 79.6590597,327.409953 76.3981303,344.946384 L76.6730822,344.954633 Z" id="Path" fill="#333383"></path>
                <path d="M64.5367061,57.7893869 C64.5367061,57.7893869 51.8669233,61.2125378 50.6818807,65.4275502 C42.3590872,95.0783613 47.5666758,107.148749 45.3863074,114.105032 C45.3863074,114.105032 24.8419027,115.787737 12.8897443,121.000825 L17.0332692,121.459995 C17.0332692,121.459995 57.0222711,129.191641 60.291449,126.590597 C66.2936486,121.811933 62.5735496,84.7676657 62.5735496,84.7676657 L64.5367061,57.7893869 Z" id="Path" fill="#B88F81"></path>
                <path d="M42.5515535,148.292549 C33.8135826,155.806984 30.0329942,146.05994 28.8726973,141.897168 C27.0449883,142.957592 24.9212807,143.392952 22.8237558,143.137201 C23.7778389,147.607919 24.6219412,157.110256 13.7833379,154.806159 C12.0346439,154.434974 10.7588672,143.379159 13.359912,137.099258 C11.2509499,134.234967 9.80809835,130.935947 9.13665109,127.442947 C8.56830342,124.661618 8.48736449,121.802706 8.89744295,118.993676 C8.66674097,119.047439 8.44059224,119.119144 8.22106131,119.208139 C6.94253506,119.815782 6.82705527,125.507286 3.66235909,126.631839 C0.497662909,127.756393 -1.63596371,121.682706 2.1308771,116.967281 C4.43222436,114.083035 8.50701127,112.694528 11.3335166,112.048392 C11.9216817,111.08084 12.6282662,110.190451 13.4368985,109.397855 C11.2791812,108.236691 9.75263577,106.172729 9.27412703,103.76959 C9.11115498,102.94503 9.073153,102.100645 9.16139676,101.264779 C7.41570919,100.749721 6.20409048,99.164107 6.16572912,97.3444262 C6.12736776,95.5247455 7.27108586,93.8894778 8.99351587,93.3013074 C10.7159459,92.713137 12.6209731,93.3073279 13.7036019,94.7704152 C14.924122,94.1702184 16.2732103,93.8784981 17.6326643,93.9208139 C18.0874287,92.1983595 19.5834391,90.9530802 21.3598129,90.8183351 C23.1361866,90.68359 24.8029181,91.6889624 25.5122945,93.323112 C26.2216709,94.9572616 25.8179475,96.8614084 24.5064614,98.0670883 C24.9434266,98.8375756 25.2543816,99.6729769 25.4275502,100.541655 C25.8791036,102.786344 25.3727804,105.117624 24.0307946,106.97278 L23.9950509,107.022271 C25.1935982,107.444708 26.3251544,108.03734 27.3549629,108.781963 L27.4127028,108.823206 C27.6519109,108.776464 27.9021171,108.732472 28.1660709,108.68848 C31.0255705,108.221061 35.1800935,107.99835 38.325543,109.727798 C43.6266153,112.636789 43.9895518,119.059665 40.6323893,119.235634 C37.2752268,119.411603 34.9793786,114.204014 33.5661259,114.132527 C33.1529108,114.150652 32.7413851,114.196581 32.3343415,114.270003 L32.3343415,114.270003 C33.8040696,116.712563 34.8351037,119.393437 35.3808084,122.191367 C36.1405677,125.808776 36.0416891,129.553923 35.0921089,133.126203 C40.068738,137.673907 43.8520759,147.176244 42.5515535,148.292549 Z" id="Path" fill="#DFE5F4"></path>
                <path d="M42.5515535,148.292549 C33.8135826,155.806984 30.0329942,146.05994 28.8726973,141.897168 C27.0449883,142.957592 24.9212807,143.392952 22.8237558,143.137201 C28.1385757,142.62579 30.5224086,129.796536 31.7789387,126.543855 C33.0354688,123.291174 28.691229,118.020346 30.6103932,115.111356 C31.1602969,114.267253 31.7624416,114.088535 32.331592,114.2865 L32.331592,114.2865 C33.8013201,116.72906 34.8323541,119.409935 35.3780588,122.207864 C36.1378182,125.825273 36.0389395,129.57042 35.0893594,133.1427 C40.068738,137.673907 43.8520759,147.176244 42.5515535,148.292549 Z" id="Path" fill="#D0D6EC"></path>
                <path d="M62.1391257,19.6370635 C62.1391257,19.6370635 62.6312895,-2.29584823 84.0500412,0.445422051 C105.468793,3.18669233 107.266978,31.2675282 102.947484,40.6268903 C98.6279901,49.9862524 111.586472,50.1649711 115.364311,58.4437723 C119.14215,66.7225735 113.02722,76.0819357 113.02722,78.4217762 C113.02722,80.7616167 117.165246,90.2996976 102.947484,89.9395106 C88.7297223,89.5793236 57.7728897,91.0200715 59.2136376,78.2403079 C60.6543855,65.4605444 61.7129502,58.4437723 66.2991476,52.6835304 C70.8853451,46.9232884 62.1391257,19.6370635 62.1391257,19.6370635 Z" id="Path" fill="#333383"></path>
                <path d="M106.34314,61.2675282 C101.591945,60.0473109 96.7777149,59.0872185 91.9219137,58.3915315 L91.9219137,58.3915315 C91.9219137,58.3915315 89.9450096,58.0038493 89.0019247,37.2202365 L71.5699753,42.5295573 C71.5699753,42.5295573 72.8924938,50.2007149 70.3134451,57.297223 C65.6832554,57.5309321 62.9859775,58.0120979 62.6422876,58.0120979 C62.6422876,58.0120979 47.731647,90.2392081 50.1237283,105.001375 C52.5158097,119.763541 51.7734396,161.473742 51.7734396,161.473742 L103.65686,160.830355 C102.173754,152.996655 99.9646077,145.31803 97.0580148,137.893869 C92.2711026,125.740995 106.34314,61.2675282 106.34314,61.2675282 Z" id="Path" fill="#B88F81"></path>
                <path d="M113.973055,64.2425076 C110.299698,60.0604894 93.9703052,58.6994776 93.9703052,58.6994776 C91.4050041,62.7165246 68.0478416,73.4066538 68.0478416,73.4066538 C64.0637888,68.4272752 64.5367061,57.7893869 64.5367061,57.7893869 C55.2873247,58.3915315 53.1591971,60.7286225 53.1454495,60.7423701 L53.1454495,60.7423701 C53.1454495,60.7423701 47.7728897,64.6246907 45.3863074,89.337366 C46.6130339,89.5413027 47.8062846,89.911303 48.9331867,90.4371735 C48.7217969,92.6917512 48.6300176,94.9559462 48.6582348,97.2202365 C49.0239208,109.455595 52.3123453,131.385757 50.4976629,141.957657 C49.4143525,148.262304 50.0164971,156.348639 50.3931812,160.05499 C50.5126987,161.240885 51.4373093,162.186043 52.6202914,162.331592 C57.0195216,162.881496 67.9488589,164.069288 78.097333,164.069288 C84.0417927,164.069288 89.9615067,163.447897 94.594446,162.810008 L94.594446,162.810008 C99.4528458,162.144625 102.900742,161.462744 103.494638,161.462744 C106.337641,161.462744 101.105307,141.916415 97.811383,132.350839 C94.5174594,122.785263 106.959032,92.7577674 106.959032,92.7577674 L107.047017,92.554303 C108.072587,90.2089634 117.448447,68.2018147 113.973055,64.2425076 Z" id="Path" fill="#00BAE0"></path>
                <path d="M106.956283,92.7632664 C106.956283,92.7632664 94.520209,122.80176 97.8086335,132.356338 C101.097058,141.910916 106.332142,161.468243 103.491889,161.468243 C102.897993,161.468243 99.4500962,162.150124 94.5916965,162.815507 L94.5916965,162.815507 C85.8729722,161.165796 88.1688205,158.691229 90.3959307,151.525983 C92.623041,144.360737 81.5974704,127.621666 79.9477591,121.847677 C78.2980478,116.073687 80.0137476,88.5784988 84.3469893,84.0500412 C88.680231,79.5215837 107.049766,92.554303 107.049766,92.554303 L106.956283,92.7632664 Z" id="Path" fill="#07B2D5"></path>
                <path d="M24.0362936,106.975529 C21.4692707,108.724486 18.3383163,109.443918 15.2653286,108.990927 C14.6466868,108.905692 24.9106406,107.572175 24.5119604,98.0725873 C24.9489257,98.8430747 25.2598806,99.6784759 25.4330492,100.547154 C25.8838016,102.790964 25.3775148,105.121079 24.0362936,106.975529 L24.0362936,106.975529 Z" id="Path" fill="#D0D6EC"></path>
                <path d="M40.6378884,119.238383 C43.0877097,116.469618 38.5729997,111.605719 36.0159472,109.994501 C33.4588947,108.383283 26.4476217,110.995326 26.4476217,109.994501 C26.4476217,109.546329 26.8820456,109.120154 27.3604619,108.784713 L27.4182018,108.825955 C30.2557053,108.276052 34.896893,107.841628 38.3310421,109.730547 C43.6321144,112.639538 43.9923013,119.054166 40.6378884,119.238383 Z" id="Path" fill="#D0D6EC"></path>
                <path d="M28.17157,108.691229 C26.7803134,109.25488 23.5936211,109.216387 23.4836404,108.141325 C23.4122701,107.698642 23.6167945,107.256956 24.0005499,107.025021 C25.1990972,107.447458 26.3306534,108.04009 27.3604619,108.784713 L27.4182018,108.825955 C27.65741,108.779214 27.9076162,108.735221 28.17157,108.691229 Z" id="Path" fill="#D0D6EC"></path>
                <path d="M19.1448996,94.45697 C19.1448996,94.45697 20.2722024,91.9521584 22.5240583,92.7055265 C24.7759142,93.4588947 23.0739621,96.6675832 23.0739621,96.6675832 C22.0424435,95.5193932 20.6617402,94.7425665 19.1448996,94.45697 L19.1448996,94.45697 Z" id="Path" fill="#D0D6EC"></path>
                <path d="M12.0511411,95.5402805 C12.0511411,95.5402805 9.46384383,94.7154248 8.6719824,96.2084135 C7.88012098,97.7014023 9.96700577,98.9579324 9.96700577,98.9579324 C10.3711775,97.6651498 11.0868794,96.4915118 12.0511411,95.5402805 Z" id="Path" fill="#D0D6EC"></path>
                <path d="M68.1880671,46.9590322 C68.1880671,46.9590322 89.4500962,47.9323618 89.851526,34.6796811 C90.2529557,21.4270003 93.2691779,12.6312895 79.708551,11.4489964 C66.1479241,10.2667033 63.3571625,15.2460819 62.1473742,19.6370635 C60.9375859,24.0280451 62.6587847,46.3651361 68.1880671,46.9590322 Z" id="Path" fill="#D09F8E"></path>
                <path d="M74.1050316,9.80478416 C74.1050316,9.80478416 74.4157272,14.22876 82.3398405,20.6021446 C90.2639538,26.9755293 90.6791312,40.4454221 90.6791312,40.4454221 C90.6791312,40.4454221 98.8067088,17.1982403 91.6524608,11.2730272 C84.4982128,5.34781413 74.1050316,9.80478416 74.1050316,9.80478416 Z" id="Path" fill="#333383"></path>
                <path d="M77.011273,8.88369535 C77.011273,8.88369535 66.2881496,8.36403629 63.3819082,12.9749794 C60.4756668,17.5859225 59.0321694,25.845477 62.1391257,30.7946109 C62.1391257,30.7946109 63.4451471,18.2100632 69.6535606,14.6109431 C75.8619742,11.0118229 77.011273,8.88369535 77.011273,8.88369535 Z" id="Path" fill="#333383"></path>
                <path d="M115.856475,66.2634039 C113.596371,61.3335166 96.5218587,59.1339016 96.5218587,59.1339016 L75.3725598,120.566401 L35.1690954,126.301897 C35.1690954,126.301897 29.5325818,118.012098 19.3456145,122.152873 C19.3456145,122.152873 15.2983228,124.154523 17.9103657,126.277151 C20.5224086,128.39978 19.8350289,127.25598 23.4478966,130.313445 C27.0607644,133.37091 31.8119329,134.712675 34.9408853,133.409403 L36.1781688,133.409403 C44.5092109,133.816332 80.296948,140.772615 85.1965906,135.925213 C90.4069288,130.767116 118.11383,71.1905417 115.856475,66.2634039 Z" id="Path" fill="#D09F8E"></path>
                <path d="M93.9675557,58.6994776 C93.9675557,58.6994776 112.96948,60.4591696 115.856475,66.2606544 C118.74347,72.0621391 104.910641,98.0423426 104.910641,98.0423426 C104.910641,98.0423426 93.3214188,90.068738 85.2653286,91.82843 L93.9675557,58.6994776 Z" id="Path" fill="#00BAE0"></path>
            </g>
        </g>
    </g>
</svg>