<?xml version="1.0" encoding="UTF-8"?>
<svg width="129px" height="110px" viewBox="0 0 129 110" version="1.1" xmlns="http://www.w3.org/2000/svg" xmlns:xlink="http://www.w3.org/1999/xlink">
    <title>logo</title>
    <g id="logo" stroke="none" stroke-width="1" fill="none" fill-rule="evenodd">
        <g id="Group" transform="translate(0.921917, 0.739523)" fill-rule="nonzero">
            <path d="M6.07808338,59.2604766 C10.1067834,57.3817766 15.2556834,53.6562766 16.8411834,49.2604766 C18.1651834,45.5896766 15.4114834,41.0535766 15.3419834,37.2604766 C15.2195834,30.5806766 19.8517834,23.6767766 25.0819834,19.8985766 C33.3572834,13.9206766 43.1095834,14.6637766 51.0780834,20.7897766 C54.7074834,23.5799766 58.2658834,29.1650766 63.0780834,29.8337766 C69.9479834,30.7883766 75.5405834,20.8384766 81.0780834,17.9340766 C95.8070834,10.2087766 113.822083,24.1847766 111.892083,40.2604766 C111.020083,47.5236766 105.994083,52.3362766 101.078083,57.2604766 C92.8310834,65.5214766 82.6242834,73.5534766 76.0711834,83.2604766 C71.4857834,90.0524766 73.0780834,99.4494766 73.0780834,107.260477 C84.9163834,98.9214766 94.8420834,86.4964766 105.078083,76.2604766 C112.959083,68.3795766 121.713083,61.0132766 125.636083,50.2604766 C133.308083,29.2308766 120.064083,5.46887661 98.0780834,0.778176605 C90.5970834,-0.817923395 82.0365834,0.0765766051 75.0780834,3.13697661 C71.6935834,4.62557661 67.7993834,8.63617661 64.0780834,8.81757661 C60.3677834,8.99837661 56.3903834,4.76197661 53.0780834,3.30367661 C46.6827834,0.488076605 40.0027834,-0.157323395 33.0780834,0.350776605 C16.5835834,1.56087661 2.01418338,15.8572766 0.251683376,32.2604766 C-0.817216624,42.2092766 1.59238338,50.4922766 6.07808338,59.2604766 Z" id="Path" fill="#666666"></path>
            <polygon id="Path" fill="#666666" points="27.0780834 51.2604766 27.0780834 58.2604766 33.0780834 58.2604766 33.0780834 101.260477 27.0780834 101.260477 27.0780834 108.260477 55.0780834 108.260477 55.0780834 101.260477 48.0780834 101.260477 48.0780834 51.2604766"></polygon>
            <circle id="Oval" fill="#3BA89D" cx="39.0780834" cy="37.2604766" r="10"></circle>
        </g>
    </g>
</svg>